<svg width="25" height="22" viewBox="0 0 25 22" fill="none" xmlns="http://www.w3.org/2000/svg">
<path d="M23.0723 1.94496C22.4614 1.32835 21.7361 0.839213 20.9378 0.50549C20.1396 0.171768 19.2839 0 18.4199 0C17.5558 0 16.7001 0.171768 15.9019 0.50549C15.1036 0.839213 14.3783 1.32835 13.7674 1.94496L12.4997 3.22404L11.2319 1.94496C9.99803 0.700036 8.3245 0.000645287 6.57951 0.0006453C4.83452 0.000645313 3.16099 0.700036 1.92709 1.94496C0.693196 3.18988 1.30012e-08 4.87836 0 6.63895C-1.30012e-08 8.39954 0.693196 10.088 1.92709 11.3329L3.19485 12.612L12.4997 22L21.8045 12.612L23.0723 11.3329C23.6834 10.7166 24.1682 9.98485 24.499 9.17944C24.8298 8.37403 25 7.51076 25 6.63895C25 5.76714 24.8298 4.90387 24.499 4.09846C24.1682 3.29305 23.6834 2.56128 23.0723 1.94496Z" fill="url(#paint0_linear)"/>
<defs>
<linearGradient id="paint0_linear" x1="31.25" y1="4.71428" x2="-7.92152" y2="18.5628" gradientUnits="userSpaceOnUse">
<stop stop-color="#FF5733"/>
<stop offset="1" stop-color="#FFAC35"/>
</linearGradient>
</defs>
</svg>
