<svg width="38" height="40" viewBox="0 0 38 40" fill="none" xmlns="http://www.w3.org/2000/svg">
<path d="M10.4775 20.1444C10.4775 20.1444 11.9254 19.9652 12.4994 21.2157C12.9755 22.2532 12.6013 23.3445 12.6013 23.3445L11.945 23.7268C11.9469 23.7288 13.4163 20.4431 10.4775 20.1444Z" fill="#8E4729"/>
<path d="M23.032 10.6238C22.6715 8.76985 21.1041 6.87808 19.5349 6.40016C18.8217 6.18311 18.232 6.29462 17.8323 6.65306L17.8754 0.0139399L2.7683 9.3792L0 28.2133L5.79326 24.7424C5.36616 23.9757 5.27408 22.1377 5.85399 20.8672C6.86296 18.6568 8.55764 17.5178 10.1681 17.5278C11.7491 17.5377 12.474 19.1746 11.6923 21.2974L17.7246 17.7627L17.8108 10.2295C18.4749 11.5796 19.6583 12.7505 20.8455 13.113C22.4148 13.5909 23.3925 12.4777 23.032 10.6238Z" fill="url(#paint0_linear)"/>
<path d="M10.074 17.4202C12.0175 17.4421 12.1547 19.7521 11.9685 20.2838C12.1057 19.4972 11.7276 17.3446 9.31584 18.0754C6.36533 19.075 4.96061 22.9741 6.26542 25.0729L0.591668 28.3746L0 28.2133L5.76191 24.7483C5.76191 24.7483 4.99588 23.1553 5.80109 20.911C6.30068 19.4355 8.05022 17.4421 10.074 17.4202Z" fill="#BF7A3A"/>
<path d="M23.032 10.6238C22.6715 8.76985 21.1042 6.87808 19.5349 6.40016C19.0549 6.2528 18.6317 6.25877 18.285 6.38622L18.3183 6.36432L18.3379 0.414198L17.8716 0L17.7148 17.7568L18.1106 18.0077L18.1988 10.9324C18.1988 10.9324 19.8386 12.8043 20.8456 13.113C22.4149 13.5909 23.3925 12.4777 23.032 10.6238Z" fill="url(#paint1_linear)"/>
<path d="M22.3444 13.0253C22.3444 13.0253 21.7978 13.3041 21.4922 13.4336C19.8131 13.9951 18.1772 12.0834 18.1772 12.0834L18.1988 10.9305C18.1988 10.9324 20.4401 13.8737 22.3444 13.0253Z" fill="#8E4729"/>
<path opacity="0.62" d="M18.1988 10.9324C18.1988 10.9324 19.3429 12.5195 20.824 13.0333C22.4795 13.6088 23.3945 12.4777 23.032 10.6238C23.0085 10.5063 22.9811 10.3868 22.9478 10.2693C20.2598 8.86743 18.2458 8.17444 17.7991 8.02708L17.7129 17.7568L18.1086 18.0077L18.1988 10.9324Z" fill="url(#paint2_linear)"/>
<path d="M24.6326 22.6734C25.1204 22.2871 25.7963 22.0959 26.2116 22.0202L26.9209 22.4284C26.9209 22.4284 26.6779 22.4404 25.9667 22.5698C24.66 22.755 23.8469 23.8283 23.8469 23.8283C23.8469 23.8283 24.1114 23.0856 24.6326 22.6734Z" fill="#FCA36A"/>
<path d="M38 28.4502L36.2191 9.52457L20.775 0.254892L20.6986 6.32449C21.0062 6.207 21.4196 6.16518 21.8114 6.28466C23.6491 6.84821 25.4163 8.72405 25.8394 10.9066C26.2626 13.0871 25.1949 14.7001 23.3552 14.1365C22.3972 13.8418 21.3432 12.9835 20.585 12.0277V17.9758L28.0572 22.5021C26.5075 22.2353 25.0284 22.6216 24.2937 23.452C23.3513 24.5174 24.1252 26.0168 26.0236 26.7994C27.9201 27.582 30.2221 27.353 31.1664 26.2877C31.6641 25.7241 31.6738 25.2024 31.3016 24.5671L38 28.4502Z" fill="url(#paint3_linear)"/>
<path d="M38 28.4502L28.0945 22.5061C28.0808 22.5041 28.069 22.5041 28.0553 22.5021L20.587 17.9041L20.0188 18.2586L26.9249 22.4304L26.9876 22.4344C25.8747 22.4762 24.8501 22.8267 24.3015 23.446C23.3592 24.5074 24.1664 26.0308 26.0648 26.8114C27.9613 27.59 30.2652 27.363 31.2076 26.3016C31.4956 25.975 31.6171 25.6624 31.5975 25.3358L37.3555 28.6972L38 28.4502Z" fill="url(#paint4_linear)"/>
<path d="M20.2459 0.651168L20.7749 0.254892L20.6985 6.32449L20.2205 6.61522L20.2459 0.651168Z" fill="url(#paint5_linear)"/>
<path d="M20.585 11.9918L20.0854 12.3224L20.0168 18.2586L20.585 17.9041V11.9918Z" fill="url(#paint6_linear)"/>
<path d="M20.2205 6.61522C20.2205 6.61522 21.2236 6.17514 22.2345 6.74466C23.2474 7.31418 24.8715 8.50699 25.4691 11.2072C25.9784 13.5172 24.131 14.2918 23.7705 14.2381C23.7705 14.2381 26.4271 14.6602 25.8844 11.1714C25.3241 7.71842 22.0895 5.73505 20.7357 6.30457L20.2205 6.61522Z" fill="#BC663E"/>
<path opacity="0.62" d="M38 28.4502L37.2575 20.5645C33.7584 16.0761 29.3816 13.0034 25.861 11.0479C26.2117 13.1568 25.1537 14.6901 23.3552 14.1385C22.3972 13.8438 21.3432 12.9855 20.585 12.0297V17.9778L38 28.4502Z" fill="url(#paint7_linear)"/>
<path d="M36.233 30.9414L36.1801 30.2385L29.9441 26.4709L30.0009 27.2714L36.233 30.9414Z" fill="url(#paint8_linear)"/>
<path d="M30.0066 27.2654C30.1398 28.0221 29.9282 28.97 27.5165 29.2846C25.4378 29.5076 23.7313 28.8107 22.9203 28.2093C21.1688 26.9109 21.7526 25.6524 21.7526 25.6524C21.7526 26.0049 22.1366 27.2455 23.5041 27.9504C24.8716 28.6554 26.7132 29.0437 28.5019 28.5618C30.1104 28.1237 29.9439 26.4569 29.9439 26.4569L30.0066 27.2654Z" fill="url(#paint9_linear)"/>
<path d="M18.9217 19.6704L18.8865 20.4032L24.7483 23.9259L24.6601 23.2528L18.9217 19.6704Z" fill="url(#paint10_linear)"/>
<path d="M30.0086 27.2654C30.0615 27.6975 30.0341 28.0619 29.6893 28.4542C29.0506 29.1851 26.2843 29.7406 24.0626 28.8266C21.8389 27.9126 21.0709 26.2339 22.1759 24.9893C22.7245 24.372 23.5571 24.0135 24.8619 23.9757L18.8865 20.4032L11.4926 24.6408C11.6415 24.3899 11.7649 24.0175 11.8785 23.7467C12.6779 21.831 12.1861 20.22 10.7814 20.1464C9.37666 20.0727 7.5899 21.5662 6.79056 23.4819C6.10877 25.1167 6.36542 26.5286 7.32933 26.9548L1.15796 30.5551L18.6043 40.004L36.231 30.9474L30.0086 27.2654Z" fill="url(#paint11_linear)"/>
<path d="M11.9471 23.7288C12.0725 23.3922 12.1743 23.0517 12.2312 22.759C12.5917 20.9051 11.5886 19.7581 10.0193 20.238C8.44997 20.7179 6.85717 22.6515 6.49472 24.5034C6.31252 25.4413 6.50452 26.1821 6.92378 26.6282L1.25199 29.9139L1.15991 30.5511L18.8884 20.4032L18.9217 19.6724L11.9471 23.7288Z" fill="#FCA36A"/>
<path d="M11.6924 21.2974L12.0627 21.5881L18.1106 18.0077L17.7247 17.7627L11.6924 21.2974Z" fill="#BF7A3A"/>
<path opacity="0.75" d="M17.801 8.02708C16.4256 7.60293 11.8255 7.6089 8.07176 9.56041C6.56908 10.2813 3.25025 12.2567 2.0003 14.716L0.00195312 28.2033L5.7815 24.7603C5.26036 23.5396 5.37203 21.8987 5.94411 20.6084C6.60826 19.1109 8.10115 17.5098 10.029 17.4461C11.5826 17.3943 12.5641 19.1646 11.708 21.3033L17.6932 17.7966L17.801 8.02708Z" fill="url(#paint12_linear)"/>
<defs>
<linearGradient id="paint0_linear" x1="0" y1="14.1139" x2="23.1068" y2="14.1139" gradientUnits="userSpaceOnUse">
<stop stop-color="#FFC672"/>
<stop offset="0.371" stop-color="#FCAE67"/>
<stop offset="1" stop-color="#F78655"/>
</linearGradient>
<linearGradient id="paint1_linear" x1="17.7145" y1="9.0034" x2="23.1068" y2="9.0034" gradientUnits="userSpaceOnUse">
<stop stop-color="#FCAE67"/>
<stop offset="1" stop-color="#F78655"/>
</linearGradient>
<linearGradient id="paint2_linear" x1="20.4123" y1="18.0068" x2="20.4123" y2="8.0265" gradientUnits="userSpaceOnUse">
<stop offset="0.0714" stop-color="#F78655"/>
<stop offset="0.9945" stop-color="white"/>
</linearGradient>
<linearGradient id="paint3_linear" x1="31.1644" y1="29.6752" x2="25.7325" y2="-0.633332" gradientUnits="userSpaceOnUse">
<stop offset="0.2043" stop-color="#C44090"/>
<stop offset="0.6935" stop-color="#F78655"/>
</linearGradient>
<linearGradient id="paint4_linear" x1="29.0077" y1="28.6966" x2="29.0077" y2="17.9033" gradientUnits="userSpaceOnUse">
<stop offset="0.2802" stop-color="#92346A"/>
<stop offset="1" stop-color="#BA458A"/>
</linearGradient>
<linearGradient id="paint5_linear" x1="20.2212" y1="3.43476" x2="20.7745" y2="3.43476" gradientUnits="userSpaceOnUse">
<stop stop-color="#DE884B"/>
<stop offset="0.6868" stop-color="#FCAE67"/>
<stop offset="1" stop-color="#FFC672"/>
</linearGradient>
<linearGradient id="paint6_linear" x1="20.0159" y1="15.1251" x2="20.5849" y2="15.1251" gradientUnits="userSpaceOnUse">
<stop stop-color="#DE884B"/>
<stop offset="0.6868" stop-color="#FCAE67"/>
<stop offset="1" stop-color="#FFC672"/>
</linearGradient>
<linearGradient id="paint7_linear" x1="30.7396" y1="29.7513" x2="27.34" y2="10.7827" gradientUnits="userSpaceOnUse">
<stop offset="0.0659" stop-color="#CE4595"/>
<stop offset="0.6484" stop-color="#F78655"/>
<stop offset="0.9945" stop-color="white"/>
</linearGradient>
<linearGradient id="paint8_linear" x1="29.9444" y1="28.7065" x2="36.2327" y2="28.7065" gradientUnits="userSpaceOnUse">
<stop stop-color="#ED4FAD"/>
<stop offset="1" stop-color="#EB4EAC"/>
</linearGradient>
<linearGradient id="paint9_linear" x1="21.6616" y1="27.4892" x2="30.0376" y2="27.4892" gradientUnits="userSpaceOnUse">
<stop stop-color="#ED4FAD"/>
<stop offset="1" stop-color="#6E1C25"/>
</linearGradient>
<linearGradient id="paint10_linear" x1="18.8871" y1="21.7986" x2="24.7482" y2="21.7986" gradientUnits="userSpaceOnUse">
<stop stop-color="#ED4FAD"/>
<stop offset="1" stop-color="#ED4FAD"/>
</linearGradient>
<linearGradient id="paint11_linear" x1="1.15953" y1="30.0703" x2="36.2326" y2="30.0703" gradientUnits="userSpaceOnUse">
<stop stop-color="#F6BC5C"/>
<stop offset="0.2747" stop-color="#F78655"/>
<stop offset="0.7097" stop-color="#A13976"/>
</linearGradient>
<linearGradient id="paint12_linear" x1="8.90114" y1="28.2016" x2="8.90114" y2="7.80089" gradientUnits="userSpaceOnUse">
<stop stop-color="#FFC672"/>
<stop offset="0.4945" stop-color="#FCAE67"/>
<stop offset="1" stop-color="white"/>
</linearGradient>
</defs>
</svg>
